<svg width="1366" height="692" viewBox="0 0 1366 692" fill="none" xmlns="http://www.w3.org/2000/svg">
<rect width="1366" height="692" fill="#E5E5E5"/>
<g clip-path="url(#clip0_0_1)">
<rect width="1366" height="692" fill="white"/>
<g clip-path="url(#clip1_0_1)">
<path d="M449.65 781.273C451.961 808.604 448.499 848.246 434.974 850.704C421.591 853.426 397.932 818.869 387.683 791.646C377.362 764.591 380.165 744.942 353.545 733.379C326.639 721.89 270.095 718.391 259.05 709.694C248.147 701.261 282.743 687.629 299.336 670.259C316.143 652.984 314.734 631.875 322.702 608.484C330.383 585.167 347.085 559.21 368.526 561.455C389.967 563.7 416.433 594.074 447.325 609.935C478.216 625.796 513.819 627.07 543.358 641.329C573.112 655.683 596.589 682.929 576.999 698.974C557.622 715.114 494.75 719.865 467.394 729.667C439.823 739.373 447.552 754.036 449.65 781.273Z" fill="#F5BBB6"/>
</g>
<g clip-path="url(#clip2_0_1)">
<path d="M-226.451 -58.8479C-198.863 -115.476 -153.942 -155.711 -109.326 -154.228C-64.4297 -152.762 -20.1197 -109.562 15.6683 -76.8425C51.4564 -44.1227 78.6998 -22.2606 114.025 7.4544C149.35 37.1694 193.319 74.7036 210.915 128.231C228.77 181.364 220.533 250.474 189.052 284.592C157.571 318.709 102.825 317.458 60.1747 315.857C17.8055 314.239 -12.4896 311.894 -47.6491 308.325C-82.5278 304.74 -122.552 299.948 -161.133 272.324C-200.017 244.34 -237.436 193.902 -251.018 132.171C-264.599 70.4414 -254.062 -2.59742 -226.451 -58.8479Z" fill="#F4E49E"/>
</g>
<path d="M458.479 94.5117L475.606 101.854L459.188 113.133L458.479 94.5117Z" fill="#B06EEF"/>
<ellipse rx="9.9458" ry="8.95633" transform="matrix(0.936669 0.350215 -0.32521 0.945642 98.4375 510.357)" fill="#8C7CCF"/>
<path d="M1284.71 108.48C1353.45 127.745 1429.15 150.705 1471.09 200.828C1512.59 251.053 1519.8 328.157 1486.19 386.947C1452.5 445.35 1377.55 485.541 1308.75 503.224C1239.96 520.907 1177.85 516.368 1101.42 523.206C1024.9 529.658 934.858 546.899 883.642 517.963C831.979 489.128 820.033 413.914 838.568 350.841C857.191 288.154 906.742 237.508 953.956 191.045C1001.62 144.482 1046.94 102.102 1100.64 88.2606C1154.42 74.8046 1216.05 89.6016 1284.71 108.48Z" fill="#D2F0EF"/>
<ellipse rx="9.68698" ry="8.7006" transform="matrix(0.937056 0.34918 -0.326192 0.945303 1247.92 564.607)" fill="#F5BBB6"/>
<path d="M695.672 560.169L705.451 575.994L687.237 576.754L695.672 560.169Z" fill="#B06EEF"/>
</g>
<defs>
<clipPath id="clip0_0_1">
<rect width="1366" height="692" fill="white"/>
</clipPath>
<clipPath id="clip1_0_1">
<rect width="367.424" height="468.138" fill="white" transform="matrix(-0.393233 0.919439 -0.914663 -0.404216 691.239 638.397)"/>
</clipPath>
<clipPath id="clip2_0_1">
<rect width="756.787" height="562.603" fill="white" transform="translate(-268.134 521.759) rotate(-93.4468)"/>
</clipPath>
</defs>
</svg>
