<svg width="1331" height="672" viewBox="0 0 1331 672" fill="none" xmlns="http://www.w3.org/2000/svg">
<rect width="1331" height="672" fill="#E5E5E5"/>
<g clip-path="url(#clip0_0_1)">
<rect width="1331" height="672" fill="white"/>
<path d="M451.011 768.562C462.402 792.37 472.75 829.468 461.333 836.784C450.134 844.284 416.944 821.996 398.398 801.276C379.845 780.736 375.7 761.938 347.65 761.528C319.365 761.292 266.947 779.437 253.983 775.746C241.236 772.239 267.942 746.895 277.066 724.959C286.417 703.028 277.96 684.5 277.222 660.377C276.249 636.429 282.552 606.698 302.741 600.646C322.93 594.595 357.24 612.049 390.622 614.731C424.004 617.413 456.693 605.148 488.306 606.894C520.146 608.644 550.683 624.399 538.392 646.269C526.328 668.143 470.983 696.121 449.532 715.279C427.855 734.432 439.846 744.759 451.011 768.562Z" fill="#F5BBB6"/>
<g clip-path="url(#clip1_0_1)">
<path d="M-182.614 -71.1514C-146.017 -122.421 -95.0459 -154.649 -51.2939 -145.788C-7.26233 -136.898 29.2705 -86.9482 59.1372 -48.7468C89.004 -10.5454 112.245 15.5316 142.153 50.6932C172.062 85.8547 209.198 130.16 217.674 185.865C226.471 241.223 206.887 308.01 170.185 336.435C133.482 364.86 79.7011 354.547 37.9071 345.896C-3.60711 337.274 -33.0938 329.938 -67.1748 320.588C-100.976 311.269 -139.651 299.906 -173.117 266.267C-206.823 232.222 -235.36 176.277 -238.517 113.149C-241.674 50.0219 -219.171 -20.2584 -182.614 -71.1514Z" fill="#F4E49E"/>
</g>
<path d="M458.479 94.5117L475.606 101.854L459.188 113.133L458.479 94.5117Z" fill="#B06EEF"/>
<ellipse rx="9.68698" ry="8.7006" transform="matrix(0.937056 0.34918 -0.326192 0.945303 95.9153 495.607)" fill="#8C7CCF"/>
<path d="M1249.71 88.4802C1318.45 107.745 1394.15 130.705 1436.09 180.828C1477.59 231.053 1484.8 308.157 1451.19 366.947C1417.5 425.35 1342.55 465.541 1273.75 483.224C1204.96 500.907 1142.85 496.368 1066.42 503.206C989.896 509.658 899.858 526.899 848.642 497.963C796.979 469.128 785.033 393.914 803.568 330.841C822.191 268.154 871.742 217.508 918.956 171.045C966.617 124.482 1011.94 82.1024 1065.64 68.2606C1119.42 54.8046 1181.05 69.6016 1249.71 88.4802Z" fill="#D2F0EF"/>
<ellipse rx="9.68698" ry="8.7006" transform="matrix(0.937056 0.34918 -0.326192 0.945303 1212.92 544.607)" fill="#F5BBB6"/>
<path d="M677.848 543.979L687.375 559.347L669.628 560.084L677.848 543.979Z" fill="#B06EEF"/>
</g>
<defs>
<clipPath id="clip0_0_1">
<rect width="1331" height="672" fill="white"/>
</clipPath>
<clipPath id="clip1_0_1">
<rect width="756.787" height="562.603" fill="white" transform="translate(-320 494.505) rotate(-83.9015)"/>
</clipPath>
</defs>
</svg>
